<?xml version="1.0" encoding="UTF-8" standalone="no"?><!DOCTYPE svg PUBLIC "-//W3C//DTD SVG 1.1//EN" "http://www.w3.org/Graphics/SVG/1.1/DTD/svg11.dtd"><svg width="100%" height="100%" viewBox="0 0 496 512" version="1.1" xmlns="http://www.w3.org/2000/svg" xmlns:xlink="http://www.w3.org/1999/xlink" xml:space="preserve" xmlns:serif="http://www.serif.com/" style="fill-rule:evenodd;clip-rule:evenodd;stroke-linejoin:round;stroke-miterlimit:2;"><path d="M248,8c-137,0 -248,111 -248,248c0,137 111,248 248,248c137,0 248,-111 248,-248c0,-137 -111,-248 -248,-248Zm0,448c-110.3,0 -200,-89.7 -200,-200c0,-110.3 89.7,-200 200,-200c110.3,0 200,89.7 200,200c0,110.3 -89.7,200 -200,200Zm-80,-216c17.7,0 32,-14.3 32,-32c0,-17.7 -14.3,-32 -32,-32c-17.7,0 -32,14.3 -32,32c0,17.7 14.3,32 32,32Zm160,-64c-17.7,0 -32,14.3 -32,32c0,17.7 14.3,32 32,32c17.7,0 32,-14.3 32,-32c0,-17.7 -14.3,-32 -32,-32Zm8,144l-176,0c-13.2,0 -24,10.8 -24,24c0,13.2 10.8,24 24,24l176,0c13.2,0 24,-10.8 24,-24c0,-13.2 -10.8,-24 -24,-24Z" style="fill:#fff;fill-rule:nonzero;"/></svg>